<svg xmlns="http://www.w3.org/2000/svg" fill="none" stroke-linecap="square" stroke-miterlimit="10" viewBox="0 0 348 348"><clipPath id="a"><path d="M0 0h348v348H0V0z"/></clipPath><g clip-path="url(#a)"><path d="M0 0h348v348H0z"/><path fill="#fff" fill-rule="evenodd" d="M-6 0h348v347.97H-6z"/><path d="M5.08 5.78h336.91v337.67H5.08z"/><path stroke="#000" stroke-linecap="butt" stroke-linejoin="round" stroke-width="2" d="M5.08 5.78h336.91v337.67H5.08z"/><path fill="#fff" fill-rule="evenodd" d="M282.73 40.55c0-8.37 6.97-15.16 15.56-15.16 4.13 0 8.09 1.6 11 4.44a14.97 14.97 0 0 1 4.56 10.72c0 8.38-6.96 15.17-15.56 15.17-8.59 0-15.56-6.8-15.56-15.17z"/><path stroke="#000" stroke-linecap="butt" stroke-linejoin="round" stroke-width="2" d="M282.73 40.55c0-8.37 6.97-15.16 15.56-15.16 4.13 0 8.09 1.6 11 4.44a14.97 14.97 0 0 1 4.56 10.72c0 8.38-6.96 15.17-15.56 15.17-8.59 0-15.56-6.8-15.56-15.17z"/><path fill="#fff" fill-rule="evenodd" d="M117.83 290.61h87.9v34.8h-87.9z"/><path stroke="#000" stroke-linecap="butt" stroke-linejoin="round" stroke-width="2" d="M117.83 290.61h87.9v34.8h-87.9z"/><path fill="#fff" fill-rule="evenodd" d="M16.48 118.44h302.84v157.54H16.48z"/><path stroke="#000" stroke-linecap="butt" stroke-linejoin="round" stroke-width="2" d="M16.48 118.44h302.84v157.54H16.48z"/><path fill="#000" fill-rule="evenodd" d="M58.66 187.43h218.68v72.03H58.66zm-10.35 9.34-22.87 26.68 22.87 26.67z"/><path stroke="#000" stroke-linecap="butt" stroke-linejoin="round" stroke-width="2" d="m48.3 196.77-22.86 26.68 22.87 26.67z"/><path fill="#000" fill-rule="evenodd" d="m287.7 196.77 22.86 26.68-22.87 26.67z"/><path stroke="#000" stroke-linecap="butt" stroke-linejoin="round" stroke-width="2" d="m287.7 196.77 22.86 26.68-22.87 26.67z"/><path d="m161.49 49.88 113.83.56"/><path stroke="#000" stroke-linecap="butt" stroke-linejoin="round" stroke-width="2" d="m161.49 49.88 113.83.56"/><path d="M29.71 49.88 5.11 5.97"/><path stroke="#000" stroke-linecap="butt" stroke-linejoin="round" stroke-width="2" d="M29.71 49.88 5.11 5.97"/><path fill="#000" fill-rule="evenodd" d="M45.79 23.2h12.88v53.35H45.8z"/><path stroke="#000" stroke-linecap="butt" stroke-linejoin="round" stroke-width="2" d="M45.79 23.2h12.88v53.35H45.8z"/><path fill="#000" fill-rule="evenodd" d="M132.36 23.2h12.88v53.35h-12.88z"/><path stroke="#000" stroke-linecap="butt" stroke-linejoin="round" stroke-width="2" d="M132.36 23.2h12.88v53.35h-12.88z"/><path fill="#fff" fill-rule="evenodd" d="M43.35 139.81H296.1v30.33H43.35z"/><path stroke="#000" stroke-linecap="butt" stroke-linejoin="round" stroke-width="2" d="M43.35 139.81H296.1v30.33H43.35z"/><path d="M59.22 170.95v-9.77"/><path stroke="#000" stroke-linecap="butt" stroke-linejoin="round" stroke-width="2" d="M59.22 170.95v-9.77"/><path d="M84.06 139.81v12.82"/><path stroke="#000" stroke-linecap="butt" stroke-linejoin="round" stroke-width="2" d="M84.06 139.81v12.82"/><path d="M133.72 139.4v12.83"/><path stroke="#000" stroke-linecap="butt" stroke-linejoin="round" stroke-width="2" d="M133.72 139.4v12.83"/><path d="M108.89 170.54v-9.76"/><path stroke="#000" stroke-linecap="butt" stroke-linejoin="round" stroke-width="2" d="M108.89 170.54v-9.76"/><path d="M233.06 139.4v12.83"/><path stroke="#000" stroke-linecap="butt" stroke-linejoin="round" stroke-width="2" d="M233.06 139.4v12.83"/><path d="M208.23 170.54v-9.76"/><path stroke="#000" stroke-linecap="butt" stroke-linejoin="round" stroke-width="2" d="M208.23 170.54v-9.76"/><path d="M282.74 139.4v12.83"/><path stroke="#000" stroke-linecap="butt" stroke-linejoin="round" stroke-width="2" d="M282.74 139.4v12.83"/><path d="M257.9 170.54v-9.76"/><path stroke="#000" stroke-linecap="butt" stroke-linejoin="round" stroke-width="2" d="M257.9 170.54v-9.76"/><path d="M158.56 170.54v-9.76"/><path stroke="#000" stroke-linecap="butt" stroke-linejoin="round" stroke-width="2" d="M158.56 170.54v-9.76"/><path d="M183.4 139.4v12.83"/><path stroke="#000" stroke-linecap="butt" stroke-linejoin="round" stroke-width="2" d="M183.4 139.4v12.83"/><path fill="#000" fill-rule="evenodd" d="M64.1 136.15h8.54v40.28H64.1z"/><path stroke="#000" stroke-linecap="butt" stroke-linejoin="round" stroke-width="2" d="M64.1 136.15h8.54v40.28H64.1z"/><path d="M56.43 30.56h75.94v40.28H56.43z"/><path stroke="#000" stroke-linecap="butt" stroke-linejoin="round" stroke-width="2" d="M56.43 30.56h75.94v40.28H56.43z"/><path fill="#000" fill-rule="evenodd" d="M145.24 34.71h8.12c4.5 0 8.13 6.8 8.13 15.17 0 8.37-3.64 15.16-8.12 15.16h-8.13z"/><path stroke="#000" stroke-linecap="butt" stroke-linejoin="round" stroke-width="2" d="M145.24 34.71h8.12c4.5 0 8.13 6.8 8.13 15.17 0 8.37-3.64 15.16-8.12 15.16h-8.13z"/><path fill="#000" fill-rule="evenodd" d="M45 65.04h-8.13c-4.48 0-8.12-6.79-8.12-15.16 0-8.38 3.64-15.17 8.12-15.17H45z"/><path stroke="#000" stroke-linecap="butt" stroke-linejoin="round" stroke-width="2" d="M45 65.04h-8.13c-4.48 0-8.12-6.79-8.12-15.16 0-8.38 3.64-15.17 8.12-15.17H45z"/></g><path fill="#fff" d="M85.77 222.85q2.55.55 3.97 2.27 1.45 1.72 1.45 4.25 0 3.89-2.68 6.01t-7.59 2.13q-1.65 0-3.41-.33-1.74-.32-3.6-.97v-3.43q1.47.86 3.23 1.3 1.76.44 3.67.44 3.34 0 5.08-1.32 1.76-1.32 1.76-3.83 0-2.32-1.63-3.62-1.62-1.32-4.52-1.32h-3.06v-2.92h3.2q2.62 0 4-1.03 1.4-1.06 1.4-3.03 0-2.02-1.44-3.1-1.43-1.08-4.1-1.08-1.46 0-3.13.32-1.67.31-3.67.98v-3.16q2.02-.57 3.78-.85 1.77-.28 3.34-.28 4.04 0 6.4 1.85 2.35 1.82 2.35 4.95 0 2.18-1.25 3.7-1.25 1.49-3.55 2.07zm12.17 9.69h3.7V237h-3.7zm11.5-21.78h13.93v2.98h-10.69v6.44q.78-.27 1.55-.39.77-.14 1.55-.14 4.4 0 6.96 2.4 2.57 2.42 2.57 6.53 0 4.24-2.64 6.6-2.64 2.33-7.44 2.33-1.65 0-3.37-.28-1.7-.28-3.54-.85v-3.56q1.59.86 3.27 1.28 1.7.42 3.57.42 3.04 0 4.82-1.6 1.77-1.6 1.77-4.34 0-2.74-1.77-4.34-1.78-1.6-4.82-1.6-1.42 0-2.85.32-1.4.31-2.88.98zm30.47 2.33q-2.74 0-4.13 2.71-1.37 2.7-1.37 8.1 0 5.4 1.37 8.1 1.39 2.7 4.13 2.7 2.76 0 4.13-2.7 1.4-2.7 1.4-8.1 0-5.41-1.4-8.1-1.37-2.7-4.13-2.7zm0-2.8q4.41 0 6.74 3.49 2.33 3.48 2.33 10.12 0 6.63-2.33 10.13-2.32 3.48-6.74 3.48-4.41 0-6.75-3.48-2.32-3.5-2.32-10.13 0-6.64 2.32-10.12 2.34-3.5 6.75-3.5zm22.92 2.8q-2.74 0-4.13 2.71-1.37 2.7-1.37 8.1 0 5.4 1.37 8.1 1.4 2.7 4.13 2.7 2.76 0 4.13-2.7 1.4-2.7 1.4-8.1 0-5.41-1.4-8.1-1.37-2.7-4.13-2.7zm0-2.8q4.42 0 6.74 3.49 2.33 3.48 2.33 10.12 0 6.63-2.33 10.13-2.32 3.48-6.74 3.48-4.4 0-6.75-3.48-2.32-3.5-2.32-10.13 0-6.64 2.32-10.12 2.34-3.5 6.75-3.5zm26.48.47h5.29l6.7 17.86 6.73-17.86h5.29V237h-3.46v-23.05l-6.77 18h-3.57l-6.77-18V237h-3.44zm31.08 0h3.55v10.75h12.9v-10.75h3.55V237h-3.55v-12.5h-12.9V237h-3.55zm25.52 6.55h15.36v2.96l-12.16 14.15h12.16V237h-15.8v-2.95l12.16-14.15h-11.72z" aria-label="3.500 MHz"/><path fill="#000" d="M148.97 300.42h12.34v1.66h-5.18V315h-1.98v-12.92h-5.18zm13.55 0h2.12l3.62 5.42 3.64-5.42h2.12l-4.69 7 5 7.58h-2.12l-4.1-6.2-4.13 6.2h-2.13l5.2-7.78z" aria-label="TX"/><path fill="#8c88f7" d="M6.17 176.42c0-137.97.08-165.67.5-165.04.29.42 5.15 9.02 10.8 19.13l10.28 18.36v2.65c0 4.64 1.57 9.28 4.1 12.08 2.1 2.33 3.21 2.69 8.4 2.69h4.43l.11 5.68.1 5.68h14.65l.11-2.79.12-2.8h71.26v2.43c0 1.38.2 2.63.46 2.9.65.65 13.84.65 14.5 0 .3-.32.46-2.16.46-5.79v-5.3h3.96c3.35 0 4.23-.14 5.68-.87 3.17-1.6 5.41-5.74 6.26-11.55l.44-2.98 3.87.18c2.13.1 27.5.26 56.38.37l52.5.2v-2.2l-17.62-.25c-9.7-.14-31.85-.26-49.24-.26-17.38 0-34.83-.11-38.79-.25l-7.18-.25-.27-2.14c-.63-5-2.7-9.4-5.42-11.47-1.38-1.05-1.68-1.12-6-1.24l-4.55-.13-.11-5.65-.1-5.65-7.09-.1c-4.9-.08-7.24.03-7.6.33-.38.31-.54 1.4-.54 3.67v3.23H59.76l-.1-3.57-.12-3.56H44.9l-.11 5.68-.1 5.69h-4.56c-3.98 0-4.76.1-6.2.87-2.1 1.11-3.7 3.34-4.97 6.93l-1.02 2.87-10.2-18.23A1470.87 1470.87 0 0 1 7.38 7.34c-.1-.28 49.76-.4 166.58-.4h166.7v335.28H6.18Zm200.59 131.5v-18.3h-89.8l-.1 18.4-.1 18.4 45-.1 45-.1zm113.64-31.44c.13-.34.24-36.13.24-79.53 0-65.9-.09-79-.52-79.36-.39-.32-40.47-.4-152.52-.34l-152 .1-.1 79.39c-.05 43.66 0 79.6.1 79.87.14.38 30.97.48 152.37.48 138.43 0 152.22-.06 152.43-.61zM303.57 56.05c4.68-1.32 9.35-6.03 10.75-10.84.96-3.3.6-8.52-.76-11.37a16.8 16.8 0 0 0-15.27-9.56 16.87 16.87 0 0 0-15.3 9.56c-1 2.02-1.08 2.55-1.08 6.63 0 4.25.05 4.55 1.28 7.04 3.7 7.51 11.85 10.93 20.38 8.54z"/><path fill="#8c88f7" d="M17.73 197.12v-77.65h300.21v155.31H17.73Zm259.75 26.4V187.3H58.58v72.45h218.9zm-228.24-.1.1-27.65h-.92c-.72 0-3.32 2.82-12.53 13.56-6.38 7.45-11.61 13.8-11.61 14.1 0 .3 5.25 6.68 11.66 14.19 8.83 10.34 11.84 13.62 12.43 13.55.76-.1.77-.42.87-27.74zm250.88 14.19c6.4-7.5 11.65-13.86 11.65-14.15 0-.28-5.2-6.59-11.55-14-11.3-13.2-12.7-14.57-13.54-13.24-.37.58-.47 53.49-.1 54.44.66 1.75 1.88.57 13.54-13.05zM73.53 177.2c.27-.27.46-1.56.46-3.08v-2.62h110.96c61.03 0 111.23-.11 111.57-.24.54-.2.61-2.01.61-16.38v-16.14H73.99v-1.47c0-.8-.2-1.67-.46-1.92-.64-.64-9.61-.64-10.25 0-.25.25-.46 1.12-.46 1.92v1.47H52.65c-8.92 0-10.2.07-10.4.6-.14.34-.24 7.53-.24 15.99 0 14.8.02 15.38.74 15.77.46.24 4.49.4 10.4.4h9.67v2.62c0 1.52.2 2.81.46 3.08.3.3 2.01.46 5.13.46 3.1 0 4.81-.15 5.12-.46z"/><rect width="34.38" height="34.32" x="214.73" y="290.84" fill="#fff" stroke="#000" stroke-width="1.99" ry="0"/><path fill="#000" stroke="#000" stroke-width="1.7" d="m221.99 319.84-.1-22.88 19.85 11.35z"/></svg>