<?xml version="1.0" encoding="UTF-8" standalone="no"?>
<svg
   stroke-miterlimit="10"
   stroke-linecap="square"
   fill="none"
   viewBox="0 0 348 348"
   version="1.1"
   id="svg115"
   sodipodi:docname="Blinking Notes.svg"
   inkscape:version="1.2.2 (732a01da63, 2022-12-09)"
   xmlns:inkscape="http://www.inkscape.org/namespaces/inkscape"
   xmlns:sodipodi="http://sodipodi.sourceforge.net/DTD/sodipodi-0.dtd"
   xmlns="http://www.w3.org/2000/svg"
   xmlns:svg="http://www.w3.org/2000/svg">
  <defs
     id="defs119" />
  <sodipodi:namedview
     id="namedview117"
     pagecolor="#ffffff"
     bordercolor="#000000"
     borderopacity="0.25"
     inkscape:showpageshadow="2"
     inkscape:pageopacity="0.0"
     inkscape:pagecheckerboard="0"
     inkscape:deskcolor="#d1d1d1"
     showgrid="false"
     inkscape:zoom="2.5948276"
     inkscape:cx="174.19269"
     inkscape:cy="174.19269"
     inkscape:window-width="1536"
     inkscape:window-height="841"
     inkscape:window-x="-8"
     inkscape:window-y="-8"
     inkscape:window-maximized="1"
     inkscape:current-layer="svg115" />
  <clipPath
     id="a">
    <path
       d="M0 0h348v348H0V0z"
       id="path2" />
  </clipPath>
  <g
     clip-path="url(#a)"
     id="g109">
    <path
       d="M0 0h348v348H0z"
       id="path5" />
    <path
       d="M-6 0h348v347.969H-6z"
       fill="#fff"
       fill-rule="evenodd"
       id="path7" />
    <path
       d="M5.079 5.776h336.913v337.67H5.08z"
       id="path9" />
    <path
       d="M5.079 5.776h336.913v337.67H5.08z"
       stroke="#000"
       stroke-width="2"
       stroke-linecap="butt"
       stroke-linejoin="round"
       id="path11" />
    <path
       d="M282.734 40.554c0-8.376 6.966-15.165 15.56-15.165 4.126 0 8.084 1.597 11.001 4.441 2.918 2.844 4.558 6.702 4.558 10.724 0 8.376-6.966 15.165-15.56 15.165-8.593 0-15.559-6.79-15.559-15.165z"
       fill="#fff"
       fill-rule="evenodd"
       id="path13" />
    <path
       d="M282.734 40.554v0c0-8.376 6.966-15.165 15.56-15.165v0c4.126 0 8.084 1.597 11.001 4.441 2.918 2.844 4.558 6.702 4.558 10.724v0c0 8.376-6.966 15.165-15.56 15.165v0c-8.593 0-15.559-6.79-15.559-15.165z"
       stroke="#000"
       stroke-width="2"
       stroke-linecap="butt"
       stroke-linejoin="round"
       id="path15" />
    <path
       d="M117.832 290.612h87.906v34.803h-87.906z"
       fill="#fff"
       fill-rule="evenodd"
       id="path17" />
    <path
       d="M117.832 290.612h87.906v34.803h-87.906z"
       stroke="#000"
       stroke-width="2"
       stroke-linecap="butt"
       stroke-linejoin="round"
       id="path19" />
    <path
       d="M16.483 118.441h302.835v157.543H16.483z"
       fill="#fff"
       fill-rule="evenodd"
       id="path21" />
    <path
       d="M16.483 118.441h302.835v157.543H16.483z"
       stroke="#000"
       stroke-width="2"
       stroke-linecap="butt"
       stroke-linejoin="round"
       id="path23" />
    <path
       d="M58.661 187.43H277.34v72.032H58.66zm-10.354 9.339l-22.866 26.677 22.866 26.677z"
       fill="#000"
       fill-rule="evenodd"
       id="path25" />
    <path
       d="M48.307 196.769l-22.866 26.677 22.866 26.677z"
       stroke="#000"
       stroke-width="2"
       stroke-linecap="butt"
       stroke-linejoin="round"
       id="path27" />
    <path
       d="M287.693 196.769l22.866 26.677-22.866 26.677z"
       fill="#000"
       fill-rule="evenodd"
       id="path29" />
    <path
       d="M287.693 196.769l22.866 26.677-22.866 26.677z"
       stroke="#000"
       stroke-width="2"
       stroke-linecap="butt"
       stroke-linejoin="round"
       id="path31" />
    <path
       d="M161.49 49.877l113.828.567"
       id="path33" />
    <path
       d="M161.49 49.877l113.828.567"
       stroke="#000"
       stroke-width="2"
       stroke-linecap="butt"
       stroke-linejoin="round"
       id="path35" />
    <path
       d="M29.714 49.877L5.115 5.97"
       id="path37" />
    <path
       d="M29.714 49.877L5.115 5.97"
       stroke="#000"
       stroke-width="2"
       stroke-linecap="butt"
       stroke-linejoin="round"
       id="path39" />
    <path
       d="M45.79 23.2h12.882v53.354H45.79z"
       fill="#000"
       fill-rule="evenodd"
       id="path41" />
    <path
       d="M45.79 23.2h12.882v53.354H45.79z"
       stroke="#000"
       stroke-width="2"
       stroke-linecap="butt"
       stroke-linejoin="round"
       id="path43" />
    <path
       d="M132.357 23.2h12.882v53.354h-12.882z"
       fill="#000"
       fill-rule="evenodd"
       id="path45" />
    <path
       d="M132.357 23.2h12.882v53.354h-12.882z"
       stroke="#000"
       stroke-width="2"
       stroke-linecap="butt"
       stroke-linejoin="round"
       id="path47" />
    <path
       d="M43.346 139.811h252.756v30.33H43.346z"
       fill="#fff"
       fill-rule="evenodd"
       id="path49" />
    <path
       d="M43.346 139.811h252.756v30.33H43.346z"
       stroke="#000"
       stroke-width="2"
       stroke-linecap="butt"
       stroke-linejoin="round"
       id="path51" />
    <path
       d="M59.22 170.948v-9.764"
       id="path53" />
    <path
       d="M59.22 170.948v-9.764"
       stroke="#000"
       stroke-width="2"
       stroke-linecap="butt"
       stroke-linejoin="round"
       id="path55" />
    <path
       d="M84.055 139.811v12.819"
       id="path57" />
    <path
       d="M84.055 139.811v12.819"
       stroke="#000"
       stroke-width="2"
       stroke-linecap="butt"
       stroke-linejoin="round"
       id="path59" />
    <path
       d="M133.725 139.408v12.819"
       id="path61" />
    <path
       d="M133.725 139.408v12.819"
       stroke="#000"
       stroke-width="2"
       stroke-linecap="butt"
       stroke-linejoin="round"
       id="path63" />
    <path
       d="M108.89 170.545v-9.764"
       id="path65" />
    <path
       d="M108.89 170.545v-9.764"
       stroke="#000"
       stroke-width="2"
       stroke-linecap="butt"
       stroke-linejoin="round"
       id="path67" />
    <path
       d="M233.065 139.407v12.819"
       id="path69" />
    <path
       d="M233.065 139.407v12.819"
       stroke="#000"
       stroke-width="2"
       stroke-linecap="butt"
       stroke-linejoin="round"
       id="path71" />
    <path
       d="M208.23 170.543v-9.763"
       id="path73" />
    <path
       d="M208.23 170.543v-9.763"
       stroke="#000"
       stroke-width="2"
       stroke-linecap="butt"
       stroke-linejoin="round"
       id="path75" />
    <path
       d="M282.735 139.407v12.819"
       id="path77" />
    <path
       d="M282.735 139.407v12.819"
       stroke="#000"
       stroke-width="2"
       stroke-linecap="butt"
       stroke-linejoin="round"
       id="path79" />
    <path
       d="M257.9 170.543v-9.763"
       id="path81" />
    <path
       d="M257.9 170.543v-9.763"
       stroke="#000"
       stroke-width="2"
       stroke-linecap="butt"
       stroke-linejoin="round"
       id="path83" />
    <path
       d="M158.56 170.545v-9.764"
       id="path85" />
    <path
       d="M158.56 170.545v-9.764"
       stroke="#000"
       stroke-width="2"
       stroke-linecap="butt"
       stroke-linejoin="round"
       id="path87" />
    <path
       d="M183.395 139.408v12.819"
       id="path89" />
    <path
       d="M183.395 139.408v12.819"
       stroke="#000"
       stroke-width="2"
       stroke-linecap="butt"
       stroke-linejoin="round"
       id="path91" />
    <path
       d="M64.105 136.147h8.535v40.283h-8.535z"
       fill="#000"
       fill-rule="evenodd"
       id="path93" />
    <path
       d="M64.105 136.147h8.535v40.283h-8.535z"
       stroke="#000"
       stroke-width="2"
       stroke-linecap="butt"
       stroke-linejoin="round"
       id="path95" />
    <path
       d="M56.433 30.556h75.937V70.84H56.433z"
       id="path97" />
    <path
       d="M56.433 30.556h75.937V70.84H56.433z"
       stroke="#000"
       stroke-width="2"
       stroke-linecap="butt"
       stroke-linejoin="round"
       id="path99" />
    <path
       d="M145.239 34.711h8.126c4.488 0 8.126 6.79 8.126 15.166 0 8.375-3.638 15.165-8.126 15.165h-8.126z"
       fill="#000"
       fill-rule="evenodd"
       id="path101" />
    <path
       d="M145.239 34.711h8.126v0c4.488 0 8.126 6.79 8.126 15.166 0 8.375-3.638 15.165-8.126 15.165h-8.126z"
       stroke="#000"
       stroke-width="2"
       stroke-linecap="butt"
       stroke-linejoin="round"
       id="path103" />
    <path
       d="M45 65.042h-8.126c-4.488 0-8.126-6.79-8.126-15.165 0-8.376 3.638-15.166 8.126-15.166H45z"
       fill="#000"
       fill-rule="evenodd"
       id="path105" />
    <path
       d="M45 65.042h-8.126v0c-4.488 0-8.126-6.79-8.126-15.165 0-8.376 3.638-15.166 8.126-15.166H45z"
       stroke="#000"
       stroke-width="2"
       stroke-linecap="butt"
       stroke-linejoin="round"
       id="path107" />
  </g>
  <path
     d="M85.771 222.85q2.55.545 3.973 2.267 1.442 1.723 1.442 4.254 0 3.885-2.672 6.012t-7.594 2.127q-1.652 0-3.41-.334-1.74-.317-3.604-.967v-3.428q1.477.862 3.235 1.301 1.757.44 3.673.44 3.34 0 5.08-1.319 1.758-1.318 1.758-3.832 0-2.32-1.634-3.621-1.618-1.318-4.518-1.318h-3.059v-2.918h3.2q2.619 0 4.007-1.037 1.39-1.055 1.39-3.024 0-2.021-1.442-3.094-1.424-1.09-4.096-1.09-1.459 0-3.129.317-1.67.316-3.674.984v-3.164q2.022-.562 3.78-.844 1.775-.28 3.34-.28 4.042 0 6.398 1.845 2.355 1.828 2.355 4.957 0 2.18-1.248 3.691-1.248 1.495-3.55 2.075zm12.165 9.685h3.709V237h-3.71zm11.496-21.779h13.94v2.988h-10.688v6.434q.773-.264 1.546-.387.774-.14 1.547-.14 4.395 0 6.961 2.408 2.567 2.408 2.567 6.521 0 4.236-2.637 6.592-2.637 2.338-7.436 2.338-1.652 0-3.375-.281-1.705-.282-3.533-.844v-3.569q1.582.862 3.27 1.284 1.687.421 3.568.421 3.041 0 4.817-1.6 1.775-1.599 1.775-4.34 0-2.743-1.775-4.343-1.776-1.6-4.817-1.6-1.424 0-2.848.317-1.406.316-2.882.984zm30.48 2.338q-2.742 0-4.13 2.707-1.372 2.69-1.372 8.103 0 5.397 1.371 8.104 1.389 2.69 4.131 2.69 2.76 0 4.131-2.69 1.389-2.707 1.389-8.104 0-5.414-1.389-8.103-1.371-2.707-4.13-2.707zm0-2.813q4.412 0 6.733 3.498 2.337 3.48 2.337 10.125 0 6.627-2.337 10.125-2.32 3.48-6.733 3.48-4.412 0-6.75-3.48-2.32-3.498-2.32-10.125 0-6.644 2.32-10.125 2.338-3.498 6.75-3.498zm22.922 2.813q-2.742 0-4.13 2.707-1.372 2.69-1.372 8.103 0 5.397 1.371 8.104 1.389 2.69 4.131 2.69 2.76 0 4.13-2.69 1.39-2.707 1.39-8.104 0-5.414-1.39-8.103-1.37-2.707-4.13-2.707zm0-2.813q4.412 0 6.732 3.498 2.338 3.48 2.338 10.125 0 6.627-2.338 10.125-2.32 3.48-6.732 3.48-4.412 0-6.75-3.48-2.32-3.498-2.32-10.125 0-6.644 2.32-10.125 2.338-3.498 6.75-3.498zm26.473.475h5.29l6.698 17.86 6.732-17.86h5.291V237h-3.463v-23.045l-6.767 18h-3.568l-6.768-18V237h-3.445zm31.078 0h3.55v10.758h12.903v-10.758h3.55V237h-3.55v-12.498h-12.902V237h-3.551zm25.523 6.557h15.363v2.953l-12.164 14.15h12.164V237H245.47v-2.953l12.164-14.15h-11.725z"
     aria-label="3.500 MHz"
     font-size="36"
     font-family="'DejaVu Sans',sans-serif"
     text-anchor="middle"
     fill="#fff"
     id="path111" />
  <path
     d="M148.973 300.42h12.334v1.66h-5.176V315h-1.983v-12.92h-5.175zm13.545 0h2.119l3.623 5.42 3.642-5.42h2.12l-4.688 7.002 5 7.578h-2.12l-4.1-6.201-4.132 6.201h-2.128l5.205-7.783z"
     aria-label="TX"
     font-size="20"
     font-family="'DejaVu Sans',sans-serif"
     text-anchor="middle"
     fill="#000"
     id="path113" />
  <path
     style="fill:#8c88f7;stroke-width:0.770764;fill-opacity:1"
     d="m 6.166113,176.41923 c 0,-137.972112 0.085913,-165.672445 0.5118717,-165.039864 0.2815295,0.418093 5.1373433,9.024827 10.7906973,19.126077 l 10.278826,18.365908 v 2.652793 c 0,4.640759 1.57321,9.274169 4.099436,12.073638 2.105273,2.332984 3.214888,2.687932 8.402801,2.687932 h 4.433968 l 0.10665,5.684386 0.106647,5.684385 h 7.322259 7.322259 l 0.113229,-2.79402 0.113229,-2.79402 H 95.398943 131.0299 v 2.427907 c 0,1.374531 0.20064,2.628549 0.46246,2.890366 0.65058,0.650578 13.83979,0.650578 14.49036,0 0.31501,-0.315008 0.46246,-2.15814 0.46246,-5.780731 v -5.318273 h 3.96486 c 3.34692,0 4.23198,-0.135138 5.67884,-0.867109 3.17515,-1.606315 5.41482,-5.735484 6.2614,-11.543846 l 0.43544,-2.98754 3.87292,0.178417 c 2.13011,0.09813 27.50166,0.268472 56.38123,0.378537 l 52.5083,0.200125 V 50.549447 49.4546 l -17.63123,-0.255081 c -9.69717,-0.140294 -31.85182,-0.255774 -49.23255,-0.256626 -17.38074,-7.7e-4 -34.83637,-0.114612 -38.79029,-0.252799 l -7.18897,-0.251249 -0.26769,-2.142555 c -0.62438,-4.997405 -2.70012,-9.389418 -5.41855,-11.465032 -1.38271,-1.055749 -1.67783,-1.116639 -6.00383,-1.238717 l -4.54964,-0.12839 -0.10646,-5.652341 -0.10647,-5.652342 -7.07939,-0.105217 c -4.89507,-0.07275 -7.24351,0.03099 -7.6113,0.336224 -0.37482,0.311081 -0.5319,1.394864 -0.5319,3.670002 v 3.22856 H 95.396523 59.763142 L 59.652337,25.724252 59.541528,22.159468 H 52.219269 44.89701 l -0.106647,5.684386 -0.10665,5.684385 h -4.553667 c -3.980838,0 -4.760135,0.109182 -6.194957,0.867935 -2.105611,1.113474 -3.702871,3.339036 -4.979093,6.937679 L 27.940199,44.198159 17.734709,25.974304 C 12.12169,15.951184 7.4682016,7.5673955 7.3936241,7.3436631 7.2986101,7.058621 57.151373,6.9368771 173.96789,6.9368771 H 340.67774 V 174.57807 342.21927 H 173.42193 6.166113 Z M 206.75748,307.92027 v -18.30565 h -44.89701 -44.89701 l -0.10009,18.40359 -0.10008,18.40359 44.99709,-0.0979 44.9971,-0.098 z m 113.64647,-31.44016 c 0.12866,-0.33528 0.23392,-36.12567 0.23392,-79.53421 0,-65.90208 -0.0861,-78.99607 -0.5218,-79.35767 -0.38465,-0.31923 -40.47093,-0.4076 -152.51495,-0.33622 l -151.993147,0.0968 -0.09882,79.3887 c -0.05435,43.66379 -0.01644,79.60548 0.08425,79.87043 0.146032,0.38426 30.976988,0.48173 152.379847,0.48173 138.42804,0 152.21794,-0.0551 152.4307,-0.60959 z M 303.56911,56.046005 c 4.6774,-1.312708 9.34792,-6.021309 10.74726,-10.834905 0.95927,-3.299739 0.61292,-8.520345 -0.75442,-11.371554 -2.82577,-5.892401 -8.68682,-9.560476 -15.27624,-9.560476 -6.58037,0 -12.38876,3.629128 -15.30148,9.560476 -0.99014,2.016288 -1.07725,2.55271 -1.07725,6.633674 0,4.249276 0.0549,4.551592 1.27896,7.037941 3.6978,7.511304 11.85697,10.927712 20.38317,8.534844 z"
     id="path973" />
  <path
     style="fill:#8c88f7;fill-opacity:1;stroke-width:0.770764"
     d="M 17.727575,197.12292 V 119.46844 H 167.83389 317.9402 v 77.65448 77.65449 H 167.83389 17.727575 Z M 277.47508,223.52159 V 187.29568 H 168.02658 58.578073 v 36.22591 36.22592 h 109.448507 109.4485 z m -228.239971,-0.0963 0.0989,-27.65116 h -0.914072 c -0.7244,0 -3.323874,2.81274 -12.527467,13.55526 -6.387368,7.4554 -11.613396,13.79942 -11.613396,14.09784 0,0.29842 5.246013,6.68322 11.657807,14.18846 8.833328,10.33973 11.84455,13.62346 12.428572,13.55332 0.761709,-0.0915 0.771926,-0.4174 0.86966,-27.74372 z m 250.881171,14.18286 c 6.41179,-7.49463 11.65736,-13.86015 11.6568,-14.14559 -3.8e-4,-0.28545 -5.19984,-6.58877 -11.55398,-14.00737 -11.29725,-13.1898 -12.70016,-14.56073 -13.54171,-13.23305 -0.3676,0.57994 -0.46926,53.48712 -0.1046,54.43741 0.66998,1.74593 1.88958,0.57065 13.54349,-13.0514 z M 73.530897,177.19867 c 0.269012,-0.26901 0.462458,-1.55865 0.462458,-3.08306 v -2.62059 H 184.95187 c 61.02718,0 111.23283,-0.10527 111.5681,-0.23393 0.54245,-0.20815 0.6096,-2.01228 0.6096,-16.37873 V 138.73754 H 185.56146 73.993355 v -1.46445 c 0,-0.80545 -0.208106,-1.67256 -0.462458,-1.92691 -0.639314,-0.63932 -9.611849,-0.63932 -10.251163,0 -0.254352,0.25435 -0.462458,1.12146 -0.462458,1.92691 v 1.46445 H 52.645883 c -8.919469,0 -10.200185,0.075 -10.405316,0.60959 -0.128657,0.33528 -0.233922,7.52619 -0.233922,15.9798 0,14.80165 0.02757,15.38496 0.745428,15.76915 0.456972,0.24456 4.483495,0.39894 10.405316,0.39894 h 9.659887 v 2.62059 c 0,1.52441 0.193446,2.81405 0.462458,3.08306 0.30873,0.30873 2.01255,0.46246 5.125582,0.46246 3.113031,0 4.816851,-0.15373 5.125581,-0.46246 z"
     id="path1044" />
  <rect
     style="fill:#ffffff;fill-opacity:1;stroke:#000000;stroke-width:1.99207;stroke-dasharray:none;stroke-opacity:1"
     id="rect1302"
     width="34.37793"
     height="34.321926"
     x="214.72702"
     y="290.84497"
     ry="0" />
  <path
     sodipodi:type="star"
     style="fill:#000000;fill-opacity:1;stroke:#000000;stroke-width:2;stroke-dasharray:none;stroke-opacity:1"
     id="path1356"
     inkscape:flatsided="true"
     sodipodi:sides="3"
     sodipodi:cx="-80.930229"
     sodipodi:cy="133.72757"
     sodipodi:r1="15.535247"
     sodipodi:r2="7.6738462"
     sodipodi:arg1="2.0899424"
     sodipodi:arg2="3.13714"
     inkscape:rounded="0"
     inkscape:randomized="0"
     d="m -88.63787,147.21594 -0.119812,-26.90757 23.362546,13.35003 z"
     inkscape:transform-center-x="-3.1276317"
     inkscape:transform-center-y="0.17070874"
     transform="matrix(0.85428117,0,0,0.84736676,297.33188,194.69558)" />
</svg>
